# xmcd CD database file
#
# Track frame offsets:
#	150
#	26008
#	43067
#	59039
#	72455
#	90489
#	103104
#	124012
#	144501
#	170747
#	196197
#	216405
#	238344
#	263797
#	286866
#	307669
#
# Disc length: 4330 seconds
#
# Revision: 0
# Processed by: cddbd v1.5.1PL2 Copyright (c) Steve Scherf et al.
# Submitted via: CDex 1.51
#
DISCID=f310e810
DTITLE=佐野電磁 - sanodg works
DYEAR=2006
DGENRE=Game
TTITLE0=stacomPS2.DnB sanodg mix (from 攻殻機動隊 Stand Alone Complex)
TTITLE1="第７章、上空" (from DRAG-ON DRAGOON)
TTITLE2="第８章、地上" (from DRAG-ON DRAGOON)
TTITLE3="第12章、地上" (from DRAG-ON DRAGOON)
TTITLE4=尽きる (from DRAG-ON DRAGOON)
TTITLE5=Heroes never die (from GUN SURVIVOR4 BIOHAZARD HEROES NEVER DIE)
TTITLE6=Snowy! (from Be Filled With Feeling)
TTITLE7=Namoon (from Oriental Magnetic Yellow/O.M.Y)
TTITLE8=忘れない (from みんなのまにきゅあ/まにきゅあ団)
TTITLE9=Twist of Fate (from Twist of Fate/岡部啓一)
TTITLE10=Amplitude (from Sampling Masters 2)
TTITLE11=Leaning Tower (from Sampling Masters 3)
TTITLE12=Shanghai discotheque 2001 (from Don't Steal)
TTITLE13=Electric Prayer (from demo2)
TTITLE14=Jz (from DELIGHT in DAYLIGHT)
TTITLE15=You Got Colors (from オリジナル新曲)
EXTD=YEAR: 2006
EXTT0=
EXTT1=
EXTT2=
EXTT3=
EXTT4=
EXTT5=
EXTT6=
EXTT7=
EXTT8=
EXTT9=
EXTT10=
EXTT11=
EXTT12=
EXTT13=
EXTT14=
EXTT15=
PLAYORDER=
